<?xml version="1.0" encoding="utf-8"?>
<!-- Generator: Adobe Illustrator 24.0.0, SVG Export Plug-In . SVG Version: 6.00 Build 0)  -->
<svg version="1.1" id="图层_1" xmlns="http://www.w3.org/2000/svg" xmlns:xlink="http://www.w3.org/1999/xlink" x="0px" y="0px"
	 viewBox="0 0 842.65 257.32" style="enable-background:new 0 0 842.65 257.32;" xml:space="preserve">
<style type="text/css">
	.st0{opacity:0.2;fill:#399CFF;}
	.st1{opacity:0.75;fill:#399CFF;}
	.st2{fill:#3E3A39;}
	.st3{font-family:'PingFangSC-Regular-GBpc-EUC-H';}
	.st4{font-size:18px;}
	.st5{fill:#595757;}
	.st6{font-size:14px;}
	.st7{fill:#9E9E9F;stroke:#595757;stroke-miterlimit:10;}
	.st8{font-size:14px;glyph-orientation-vertical:0;writing-mode:tb;}
</style>
<g>
	<g id="XMLID_70_">
		<rect id="XMLID_14_" x="18.97" y="32.02" class="st0" width="22.62" height="197"/>
		<rect id="XMLID_26_" x="52.91" y="32.02" class="st0" width="22.62" height="197"/>
		<rect id="XMLID_27_" x="86.85" y="32.02" class="st0" width="22.62" height="197"/>
		<rect id="XMLID_28_" x="120.79" y="32.02" class="st0" width="22.62" height="197"/>
		<rect id="XMLID_33_" x="154.73" y="32.02" class="st0" width="22.62" height="197"/>
		<rect id="XMLID_31_" x="188.67" y="32.02" class="st0" width="22.62" height="197"/>
		<rect id="XMLID_30_" x="222.61" y="32.02" class="st0" width="22.62" height="197"/>
		<rect id="XMLID_29_" x="256.55" y="32.02" class="st0" width="22.62" height="197"/>
		<rect id="XMLID_40_" x="290.48" y="32.02" class="st0" width="22.62" height="197"/>
		<rect id="XMLID_39_" x="324.42" y="32.02" class="st0" width="22.62" height="197"/>
		<rect id="XMLID_38_" x="358.36" y="32.02" class="st0" width="22.62" height="197"/>
		<rect id="XMLID_36_" x="392.3" y="32.02" class="st0" width="22.62" height="197"/>
		<rect id="XMLID_235_" x="426.24" y="32.02" class="st0" width="22.62" height="197"/>
		<rect id="XMLID_234_" x="460.18" y="32.02" class="st0" width="22.62" height="197"/>
		<rect id="XMLID_233_" x="494.12" y="32.02" class="st0" width="22.62" height="197"/>
		<rect id="XMLID_232_" x="528.06" y="32.02" class="st0" width="22.62" height="197"/>
		<rect id="XMLID_231_" x="562" y="32.02" class="st0" width="22.62" height="197"/>
		<rect id="XMLID_230_" x="595.94" y="32.02" class="st0" width="22.62" height="197"/>
		<rect id="XMLID_229_" x="629.88" y="32.02" class="st0" width="22.62" height="197"/>
		<rect id="XMLID_228_" x="663.81" y="32.02" class="st0" width="22.62" height="197"/>
		<rect id="XMLID_227_" x="697.75" y="32.02" class="st0" width="22.62" height="197"/>
		<rect id="XMLID_226_" x="731.69" y="32.02" class="st0" width="22.62" height="197"/>
		<rect id="XMLID_225_" x="765.63" y="32.02" class="st0" width="22.62" height="197"/>
		<rect id="XMLID_224_" x="799.57" y="32.02" class="st0" width="22.62" height="197"/>
	</g>
	<rect id="XMLID_24_" x="18.97" y="32.02" class="st1" width="803.38" height="44.5"/>
	<rect id="XMLID_56_" x="18.97" y="82.93" class="st1" width="395.95" height="44.5"/>
	<rect id="XMLID_82_" x="426.4" y="82.93" class="st1" width="395.95" height="44.5"/>
	<rect id="XMLID_58_" x="18.97" y="133.84" class="st1" width="260.2" height="44.5"/>
	<rect id="XMLID_57_" x="290.56" y="133.84" class="st1" width="260.2" height="44.5"/>
	<rect id="XMLID_85_" x="562" y="133.84" class="st1" width="260.2" height="44.5"/>
	<rect id="XMLID_65_" x="18.97" y="184.75" class="st1" width="192.32" height="44.5"/>
	<rect id="XMLID_67_" x="222.61" y="184.75" class="st1" width="599.37" height="44.5"/>
	<text id="XMLID_55_" transform="matrix(1 0 0 1 369.5332 15.4803)" class="st2 st3 st4">内容区width</text>
	<g id="XMLID_152_">
		<text transform="matrix(1 0 0 1 180.582 254.0726)" class="st5 st3 st6">间距i=16px</text>
	</g>
	<g id="XMLID_148_">
		<line id="XMLID_150_" class="st7" x1="211.29" y1="230.87" x2="211.29" y2="235.87"/>
		<line id="XMLID_149_" class="st7" x1="222.61" y1="230.87" x2="222.61" y2="235.87"/>
	</g>
	<g>
		<text id="XMLID_91_" transform="matrix(1 0 0 1 519.582 168.0726)" class="st5 st3 st6">间距i=16px</text>
		<g id="XMLID_15_">
			<line id="XMLID_89_" class="st7" x1="550.29" y1="171.87" x2="550.29" y2="176.87"/>
			<line id="XMLID_87_" class="st7" x1="561.61" y1="171.87" x2="561.61" y2="176.87"/>
		</g>
	</g>
	<g>
		<text id="XMLID_236_" transform="matrix(1 0 0 1 248.582 168.0726)" class="st5 st3 st6">间距i=16px</text>
		<g id="XMLID_111_">
			<line id="XMLID_223_" class="st7" x1="279.29" y1="171.87" x2="279.29" y2="176.87"/>
			<line id="XMLID_222_" class="st7" x1="290.61" y1="171.87" x2="290.61" y2="176.87"/>
		</g>
	</g>
	<g>
		<text id="XMLID_2654_" transform="matrix(1 0 0 1 384.582 117.0726)" class="st5 st3 st6">间距i=16px</text>
		<g id="XMLID_239_">
			<line id="XMLID_2653_" class="st7" x1="415.29" y1="119.87" x2="415.29" y2="124.87"/>
			<line id="XMLID_330_" class="st7" x1="426.61" y1="119.87" x2="426.61" y2="124.87"/>
		</g>
	</g>
	<g id="XMLID_64_">
		<text transform="matrix(1 0 0 1 813.3101 248.4803)" class="st5 st3 st6">16px</text>
	</g>
	<g id="XMLID_37_">
		<line id="XMLID_62_" class="st7" x1="821.97" y1="222.95" x2="821.97" y2="232.95"/>
		<line id="XMLID_59_" class="st7" x1="833.99" y1="222.95" x2="833.99" y2="232.95"/>
	</g>
	<g id="XMLID_73_">
		<text transform="matrix(1 0 0 1 -2.441406e-04 248.4803)" class="st5 st3 st6">16px</text>
	</g>
	<g id="XMLID_68_">
		<line id="XMLID_71_" class="st7" x1="7.05" y1="222.95" x2="7.05" y2="232.95"/>
		<line id="XMLID_69_" class="st7" x1="19.07" y1="222.95" x2="19.07" y2="232.95"/>
	</g>
	<g id="XMLID_25_">
		<text transform="matrix(1 0 0 1 9.6619 110.8816)" class="st5 st3 st8">左安全区</text>
	</g>
	<g id="XMLID_42_">
		<text transform="matrix(1 0 0 1 831.6619 110.8816)" class="st5 st3 st8">右安全区</text>
	</g>
</g>
</svg>
