<?xml version="1.0" encoding="utf-8"?>
<!-- Generator: Adobe Illustrator 24.0.0, SVG Export Plug-In . SVG Version: 6.00 Build 0)  -->
<svg version="1.1" id="图层_1" xmlns="http://www.w3.org/2000/svg" xmlns:xlink="http://www.w3.org/1999/xlink" x="0px" y="0px"
	 viewBox="0 0 827.16 101" style="enable-background:new 0 0 827.16 101;" xml:space="preserve">
<style type="text/css">
	.st0{fill:none;stroke:#DCDDDD;stroke-miterlimit:10;}
	.st1{fill:none;stroke:#DCDDDD;stroke-miterlimit:10;stroke-dasharray:4.014,4.014;}
	.st2{fill:none;stroke:#DCDDDD;stroke-miterlimit:10;stroke-dasharray:4.0288,4.0288;}
	.st3{fill:none;stroke:#DCDDDD;stroke-miterlimit:10;stroke-dasharray:2.0249,2.0249;}
	.st4{fill:none;stroke:#DCDDDD;stroke-miterlimit:10;stroke-dasharray:2.0391,2.0391;}
	.st5{fill:none;stroke:#DCDDDD;stroke-miterlimit:10;stroke-dasharray:2.0548,2.0548;}
	.st6{fill:none;stroke:#707070;stroke-width:3;stroke-miterlimit:10;}
	.st7{fill:none;stroke:#DCDDDD;stroke-miterlimit:10;stroke-dasharray:4,4;}
	.st8{fill:none;stroke:#ED3F3F;stroke-miterlimit:10;}
	.st9{fill:#ED3F3F;}
	.st10{font-family:'PingFangSC-Semibold-GBpc-EUC-H';}
	.st11{font-size:18px;}
	.st12{fill:#666666;}
	.st13{fill:none;stroke:#666666;stroke-width:3;stroke-miterlimit:10;}
</style>
<g>
	<rect id="XMLID_1514_" x="72.22" y="0.5" class="st0" width="100" height="100"/>
	<g id="XMLID_758_">
		<path class="st1" d="M158.22,90.5h-72c-2.21,0-4-1.79-4-4v-72c0-2.21,1.79-4,4-4h72c2.21,0,4,1.79,4,4v72
			C162.22,88.71,160.43,90.5,158.22,90.5z"/>
	</g>
	<g id="XMLID_751_">
		<path class="st2" d="M138.22,70.5h-32c-2.21,0-4-1.79-4-4v-32c0-2.21,1.79-4,4-4h32c2.21,0,4,1.79,4,4v32
			C142.22,68.71,140.43,70.5,138.22,70.5z"/>
	</g>
	<g id="XMLID_752_">
		<path class="st3" d="M130.22,62.5h-16c-2.21,0-4-1.79-4-4v-16c0-2.21,1.79-4,4-4h16c2.21,0,4,1.79,4,4v16
			C134.22,60.71,132.43,62.5,130.22,62.5z"/>
	</g>
	<g id="XMLID_753_">
		<path class="st4" d="M126.22,58.5h-8c-2.21,0-4-1.79-4-4v-8c0-2.21,1.79-4,4-4h8c2.21,0,4,1.79,4,4v8
			C130.22,56.71,128.43,58.5,126.22,58.5z"/>
	</g>
	<g id="XMLID_754_">
		<path class="st5" d="M124.22,56.5h-4c-2.21,0-4-1.79-4-4v-4c0-2.21,1.79-4,4-4h4c2.21,0,4,1.79,4,4v4
			C128.22,54.71,126.43,56.5,124.22,56.5z"/>
	</g>
	<g>
		<path id="XMLID_1280_" class="st6" d="M380.67,12.48c-18.16,0-32.92,14.77-32.92,32.92c0,6.6,1.94,12.96,5.63,18.41
			c0.63,0.94,1.69,1.5,2.82,1.5h48.96c1.13,0,2.19-0.56,2.82-1.5c3.68-5.45,5.63-11.82,5.63-18.41
			C413.59,27.25,398.83,12.48,380.67,12.48L380.67,12.48z M389.49,41.77l-11.05,11.05c-0.67,0.67-1.53,1-2.4,1
			c-0.87,0-1.74-0.33-2.4-1c-1.32-1.33-1.32-3.48,0-4.81l5.25-5.25h-4.63c-1.38,0-2.62-0.83-3.15-2.1
			c-0.53-1.27-0.24-2.74,0.74-3.71l11.54-11.54c1.33-1.33,3.48-1.33,4.81,0c1.33,1.32,1.33,3.48,0,4.81l-5.74,5.75h4.63
			c1.38,0,2.62,0.83,3.15,2.1C390.76,39.33,390.47,40.79,389.49,41.77L389.49,41.77z M397.17,70.36h-33c-1.88,0-3.4,1.52-3.4,3.4
			c0,1.88,1.52,3.4,3.4,3.4h33c1.88,0,3.4-1.52,3.4-3.4C400.57,71.88,399.05,70.36,397.17,70.36L397.17,70.36z M390.59,81.63h-19.85
			c-1.88,0-3.4,1.52-3.4,3.4c0,1.88,1.52,3.4,3.4,3.4h19.85c1.88,0,3.4-1.52,3.4-3.4C394,83.15,392.47,81.63,390.59,81.63
			L390.59,81.63z M390.59,81.63"/>
		<rect id="XMLID_1221_" x="340.72" y="10.5" class="st7" width="80" height="80"/>
	</g>
	<g id="XMLID_1423_">
		<line id="XMLID_1426_" class="st8" x1="180.78" y1="13.91" x2="180.78" y2="86.19"/>
		<polygon id="XMLID_1425_" class="st9" points="180.78,10.5 183.27,14.81 185.76,19.12 180.78,16.25 175.8,19.12 178.29,14.81 		
			"/>
		<polygon id="XMLID_1424_" class="st9" points="180.78,90.63 183.27,86.32 185.76,82.01 180.78,84.88 175.8,82.01 178.29,86.32 		
			"/>
	</g>
	<text id="XMLID_1422_" transform="matrix(1 0 0 1 185.7555 58.4996)" class="st9 st10 st11">80px</text>
	<g id="XMLID_1279_">
		<line id="XMLID_1388_" class="st8" x1="54.78" y1="3.91" x2="54.78" y2="96.32"/>
		<polygon id="XMLID_1383_" class="st9" points="54.78,0.5 57.27,4.81 59.76,9.12 54.78,6.25 49.8,9.12 52.29,4.81 		"/>
		<polygon id="XMLID_1382_" class="st9" points="54.78,100.63 57.27,96.32 59.76,92.01 54.78,94.88 49.8,92.01 52.29,96.32 		"/>
	</g>
	<text id="XMLID_1278_" transform="matrix(1 0 0 1 11.2557 58.4996)" class="st9 st10 st11">88px</text>
	<g>
		<rect id="XMLID_1381_" x="535.56" y="10.5" class="st7" width="80" height="80"/>
		<g id="XMLID_1130_">
			<path id="XMLID_1384_" class="st12" d="M574.22,87.94l1.34,1.75l1.34-1.75c0.07-0.09,7.11-9.28,14.05-20.24
				c9.44-14.9,14.22-25.86,14.22-32.59c0-4-0.78-7.88-2.33-11.53c-1.49-3.53-3.63-6.69-6.35-9.41c-2.72-2.72-5.89-4.85-9.41-6.35
				c-3.65-1.54-7.53-2.33-11.53-2.33c-4,0-7.88,0.78-11.53,2.33c-3.53,1.49-6.69,3.63-9.41,6.35s-4.85,5.89-6.35,9.41
				c-1.54,3.65-2.33,7.53-2.33,11.53c0,6.72,4.79,17.68,14.23,32.59C567.11,78.66,574.15,87.85,574.22,87.94z M567.35,10.17
				c0,0-0.2,0.07-0.55,0.22c2.74-0.97,5.69-1.51,8.76-1.51c4.17,0,8.12,0.98,11.63,2.72c-1.76-1-2.98-1.44-2.98-1.44
				s18.83,6.05,18.07,26.62C599.2,54.01,576,83.7,576,83.7s0.34-0.53,0.93-1.48c-0.46,0.62-0.91,1.25-1.38,1.87
				c-2.36-3.17-7.47-10.21-12.53-18.2c-2.01-3.18-3.81-6.18-5.39-8.99c-0.08-0.14-0.16-0.29-0.24-0.44
				c-0.41-0.74-0.82-1.48-1.21-2.22l0,0c-0.08-0.16-0.17-0.32-0.25-0.48c-0.07-0.13-0.14-0.26-0.2-0.39l-0.03-0.06
				c-1.86-3.54-3.32-6.73-4.37-9.53c-0.94-2.48-1.65-4.84-2.03-7.01c-0.26-6.9,1.69-12.16,4.4-16.11c2.98-4.5,7.31-8.03,12.41-10.01
				C566.88,10.32,567.35,10.17,567.35,10.17z"/>
			<path id="XMLID_1377_" class="st12" d="M575.56,50.18c7.86,0,14.25-6.39,14.25-14.25s-6.39-14.25-14.25-14.25
				s-14.25,6.39-14.25,14.25S567.7,50.18,575.56,50.18z M586.43,35.93c0,5.99-4.88,10.87-10.87,10.87s-10.87-4.88-10.87-10.87
				s4.88-10.87,10.87-10.87S586.43,29.94,586.43,35.93z M598.2,83.04c-2.01-0.95-4.76-1.74-8.18-2.34l-0.07,0.37
				c-0.04-0.01-0.07-0.01-0.11-0.02c-0.69-0.08-1.32,0.44-1.4,1.17c-0.09,0.72,0.39,1.36,1.05,1.46l-0.06,0.35
				c2.92,0.51,5.36,1.19,7.07,1.95c1.87,0.84,2.16,1.46,2.19,1.54c-0.09,0.32-1.37,1.68-6.39,2.89c-4.51,1.09-10.46,1.69-16.74,1.69
				c-6.29,0-12.23-0.6-16.74-1.69c-5.02-1.21-6.31-2.58-6.39-2.9c0.11-0.43,2.16-2.34,9.98-3.61l-0.06-0.38
				c0.62-0.15,1.03-0.77,0.95-1.45c-0.09-0.71-0.7-1.23-1.37-1.16l-0.06-0.35c-3.57,0.58-6.58,1.4-8.7,2.36
				c-2.73,1.24-4.12,2.79-4.12,4.6c0,1.48,0.93,2.8,2.77,3.9c1.39,0.83,3.33,1.57,5.77,2.18c4.82,1.22,11.2,1.89,17.97,1.89
				s13.15-0.67,17.97-1.89c2.44-0.62,4.38-1.35,5.77-2.18c1.84-1.1,2.77-2.41,2.77-3.9C602.08,85.77,600.77,84.26,598.2,83.04z"/>
		</g>
		<rect id="XMLID_1356_" x="545.56" y="5.5" class="st7" width="60" height="90"/>
	</g>
	<g>
		<rect id="XMLID_1387_" x="731.43" y="10.5" class="st7" width="80" height="80"/>
		
			<rect id="XMLID_1386_" x="740.41" y="5.19" transform="matrix(4.783913e-11 -1 1 4.783913e-11 720.2161 820.5997)" class="st7" width="60" height="90"/>
		<path id="XMLID_1392_" class="st13" d="M770.41,25.88c-15.55,0-27.68,9.27-42.55,24.32c12.81,12.85,23.55,24.32,42.55,24.32
			c18.98,0,32.93-14.51,42.55-24.04C803.13,39.3,789.17,25.88,770.41,25.88L770.41,25.88L770.41,25.88z M770.41,67.53
			c-9.38,0-17.02-7.79-17.02-17.34c0-9.57,7.64-17.34,17.02-17.34s17.02,7.79,17.02,17.34C787.43,59.76,779.79,67.53,770.41,67.53
			L770.41,67.53L770.41,67.53z M770.41,44.11c0-1.51,0.55-2.87,1.45-3.94c-0.47-0.09-0.96-0.11-1.45-0.11
			c-5.47,0-9.93,4.53-9.93,10.13s4.47,10.13,9.93,10.13c5.47,0,9.93-4.53,9.93-10.13c0-0.45-0.04-0.87-0.08-1.32
			c-1.04,0.81-2.34,1.32-3.77,1.32C773.13,50.19,770.41,47.47,770.41,44.11L770.41,44.11L770.41,44.11z"/>
	</g>
</g>
</svg>
