<?xml version="1.0" encoding="UTF-8"?>
<svg width="118px" height="112px" viewBox="0 0 118 112" version="1.1" xmlns="http://www.w3.org/2000/svg" xmlns:xlink="http://www.w3.org/1999/xlink">
    <title>none </title>
    <defs>
        <linearGradient x1="65.9359167%" y1="13.5889655%" x2="30.3377744%" y2="94.8889655%" id="linearGradient-1">
            <stop stop-color="#ABF9B0" offset="0%"></stop>
            <stop stop-color="#42D6B3" offset="100%"></stop>
        </linearGradient>
        <linearGradient x1="68.0227402%" y1="8.73348624%" x2="31.9776689%" y2="91.2674312%" id="linearGradient-2">
            <stop stop-color="#ABF9B0" offset="0%"></stop>
            <stop stop-color="#42D6B3" offset="100%"></stop>
        </linearGradient>
        <linearGradient x1="34.0420257%" y1="13.6909211%" x2="69.6666795%" y2="95.9023961%" id="linearGradient-3">
            <stop stop-color="#ABF9B0" offset="0%"></stop>
            <stop stop-color="#42D6B3" offset="100%"></stop>
        </linearGradient>
        <linearGradient x1="34.1762698%" y1="13.4592659%" x2="69.2609185%" y2="95.0778872%" id="linearGradient-4">
            <stop stop-color="#ABF9B0" offset="0%"></stop>
            <stop stop-color="#42D6B3" offset="100%"></stop>
        </linearGradient>
        <linearGradient x1="63.4722222%" y1="13.6831723%" x2="33.4027778%" y2="94.7587433%" id="linearGradient-5">
            <stop stop-color="#ABF9B0" offset="0%"></stop>
            <stop stop-color="#42D6B3" offset="100%"></stop>
        </linearGradient>
        <linearGradient x1="66.4060182%" y1="13.6447219%" x2="29.7118033%" y2="94.9523269%" id="linearGradient-6">
            <stop stop-color="#ABF9B0" offset="0%"></stop>
            <stop stop-color="#42D6B3" offset="100%"></stop>
        </linearGradient>
        <linearGradient x1="0.255102041%" y1="50%" x2="99.744898%" y2="50%" id="linearGradient-7">
            <stop stop-color="#ABF9B0" offset="0%"></stop>
            <stop stop-color="#42D6B3" offset="100%"></stop>
        </linearGradient>
        <linearGradient x1="0%" y1="50%" x2="100%" y2="50%" id="linearGradient-8">
            <stop stop-color="#ABF9B0" offset="0%"></stop>
            <stop stop-color="#42D6B3" offset="100%"></stop>
        </linearGradient>
    </defs>
    <g id="页面-1" stroke="none" stroke-width="1" fill="none" fill-rule="evenodd">
        <g id="应用监控-导航收起" transform="translate(-814.000000, -372.000000)" fill-rule="nonzero">
            <g id="none-" transform="translate(818.000000, 372.000000)">
                <path d="M92,71.0062069 L92,39.9937931 C92,38.0303448 90.9335938,36.1675862 89.2070312,35.2110345 L62.2929688,19.7551724 C60.5664062,18.7482759 58.484375,18.7482759 56.7578125,19.7551724 L29.7929688,35.2110345 C28.0664062,36.217931 27,38.0303448 27,39.9937931 L27,70.9558621 C27,72.9193103 28.0664062,74.782069 29.7929688,75.7386207 L56.7070312,91.2448276 C58.4335938,92.2517241 60.515625,92.2517241 62.2421875,91.2448276 L89.2070312,75.7386207 C90.9335938,74.782069 92,72.9696552 92,71.0062069 Z" id="_x31_" stroke="url(#linearGradient-1)" stroke-width="10" fill="#FFFFFF" opacity="0.4"></path>
                <g id="_x32_" opacity="0.4" transform="translate(10.000000, 0.000000)">
                    <path d="M98,76.8486239 L98,33.1513761 C98,29.1146789 95.8278351,25.3302752 92.342268,23.3119266 L54.657732,1.51376147 C51.1721649,-0.504587156 46.8278351,-0.504587156 43.342268,1.51376147 L5.65773196,23.3623853 C2.17216495,25.3807339 0,29.1146789 0,33.1513761 L0,76.7981651 C0,80.8348624 2.17216495,84.6192661 5.65773196,86.6376147 L43.342268,108.486239 C46.8278351,110.504587 51.1721649,110.504587 54.657732,108.486239 L92.342268,86.6376147 C95.8278351,84.6192661 98,80.8853211 98,76.8486239 Z" id="路径" fill="#FFFFFF"></path>
                    <path d="M49,0 C49,0 48.9494845,0 49,0 C48.9494845,0 48.9494845,0 49,0 C48.9494845,0 48.9494845,0 49,0 C48.9494845,0 48.9494845,0 49,0 L48.9494845,0 L48.7979381,0 L48.5958763,0 L48.6463918,0.504587156 C48.0402062,0.555045872 48.4948454,0.504587156 49,0.504587156 L49,0 L49,0 Z M46.0195876,0.403669725 C45.9690722,0.403669725 45.9690722,0.403669725 46.0195876,0.403669725 C45.9690722,0.403669725 45.9690722,0.403669725 46.0195876,0.403669725 C45.9690722,0.403669725 45.9690722,0.403669725 46.0195876,0.403669725 C45.9690722,0.403669725 45.9690722,0.403669725 46.0195876,0.403669725 C45.9690722,0.403669725 45.9690722,0.403669725 46.0195876,0.403669725 C45.9690722,0.403669725 45.9690722,0.403669725 46.0195876,0.403669725 C45.9690722,0.403669725 45.9690722,0.403669725 46.0195876,0.403669725 L45.9690722,0.403669725 C45.9185567,0.403669725 45.8680412,0.45412844 45.8175258,0.45412844 C45.6154639,0.504587156 45.4639175,0.605504587 45.2618557,0.655963303 L45.4639175,1.11009174 C45.9185567,0.908256881 46.3731959,0.756880734 46.8278351,0.655963303 L46.0195876,0.403669725 L46.0195876,0.403669725 Z M43.2412371,1.56422018 L42.8876289,1.76605505 C42.4835052,2.01834862 41.9278351,2.37155963 41.9278351,2.37155963 L42.1804124,2.82568807 L43.4938144,2.06880734 L43.2412371,1.56422018 L43.2412371,1.56422018 Z M40.614433,3.12844037 L40.3113402,3.27981651 C39.9072165,3.48165138 39.3010309,3.8853211 39.3010309,3.8853211 L39.5536082,4.33944954 L40.8670103,3.58256881 L40.614433,3.12844037 Z M37.9876289,4.64220183 L37.785567,4.79357798 C37.3814433,4.99541284 36.7247423,5.39908257 36.7247423,5.39908257 L36.9773196,5.85321101 L38.2907216,5.09633028 L37.9876289,4.64220183 Z M35.3608247,6.1559633 L35.2092784,6.25688073 C34.8556701,6.4587156 34.0979381,6.91284404 34.0979381,6.91284404 L34.3505155,7.36697248 L35.6639175,6.61009174 L35.3608247,6.1559633 Z M32.7340206,7.66972477 L31.4206186,8.4266055 L31.6731959,8.88073394 L32.9865979,8.12385321 L32.7340206,7.66972477 L32.7340206,7.66972477 Z M30.1072165,9.18348624 L28.7938144,9.94036697 L29.0463918,10.3944954 L30.3597938,9.63761468 L30.1072165,9.18348624 L30.1072165,9.18348624 Z M27.4804124,10.6972477 L26.1670103,11.4541284 L26.4195876,11.9082569 L27.7329897,11.1513761 L27.4804124,10.6972477 Z M24.8536082,12.2110092 C24.8536082,12.2614679 24.8536082,12.2614679 24.8536082,12.2110092 C24.8030928,12.2614679 24.8030928,12.2614679 24.8536082,12.2110092 C24.8030928,12.2614679 24.8030928,12.2614679 24.8536082,12.2110092 L24.8030928,12.2614679 L23.5402062,12.9678899 L23.7927835,13.4220183 L25.1061856,12.6651376 L24.8536082,12.2110092 Z M22.2268041,13.7247706 C22.2268041,13.7247706 22.1762887,13.7247706 22.1257732,13.7752294 L20.9134021,14.4816514 L21.1659794,14.9357798 L22.4793814,14.1788991 L22.2268041,13.7247706 L22.2268041,13.7247706 Z M19.6505155,15.2385321 L18.3371134,15.9954128 L18.5896907,16.4495413 L19.9030928,15.6926606 L19.6505155,15.2385321 L19.6505155,15.2385321 Z M17.0237113,16.7522936 L15.7103093,17.5091743 L15.9628866,17.9633028 L17.2762887,17.206422 L17.0237113,16.7522936 Z M14.3969072,18.3165138 L13.0835052,19.0733945 L13.3360825,19.5275229 L14.6494845,18.7706422 L14.3969072,18.3165138 Z M11.7701031,19.8302752 L11.0628866,20.233945 C10.7597938,20.3853211 10.5072165,20.5366972 10.5072165,20.5366972 L10.7597938,20.9908257 L12.0731959,20.233945 L11.7701031,19.8302752 Z M9.14329897,21.3440367 L8.48659794,21.7477064 C8.18350515,21.9495413 7.88041237,22.1009174 7.88041237,22.1009174 L8.13298969,22.5550459 L9.44639175,21.7981651 L9.14329897,21.3440367 Z M6.51649485,22.8577982 L5.70824742,23.3119266 C5.60721649,23.3623853 5.50618557,23.4633028 5.40515464,23.5137615 L5.65773196,23.9174312 C5.80927835,23.8165138 5.96082474,23.766055 6.06185567,23.6651376 L6.92061856,23.1605505 L6.51649485,22.8577982 L6.51649485,22.8577982 Z M3.99072165,24.5229358 C3.78865979,24.6743119 3.58659794,24.8761468 3.43505155,25.0275229 L3.33402062,25.1284404 L3.28350515,25.1788991 L3.6371134,25.5321101 C3.94020619,25.1788991 4.29381443,24.8256881 4.69793814,24.5229358 L3.99072165,24.5229358 L3.99072165,24.5229358 Z M1.97010309,26.7431193 C1.91958763,26.8440367 1.86907216,26.9449541 1.76804124,26.9954128 L1.76804124,27.0458716 C1.76804124,27.0963303 1.71752577,27.146789 1.71752577,27.1972477 C1.66701031,27.2477064 1.66701031,27.3486239 1.61649485,27.3990826 L2.07113402,27.6009174 C2.27319588,27.146789 2.5257732,26.7431193 2.82886598,26.3394495 L1.97010309,26.7431193 L1.97010309,26.7431193 Z M0.606185567,29.4678899 C0.555670103,29.5688073 0.555670103,29.6697248 0.505154639,29.7706422 C0.505154639,29.8211009 0.454639175,29.8715596 0.454639175,29.9220183 C0.404123711,30.0733945 0.353608247,30.2752294 0.303092784,30.4266055 C0.303092784,30.4770642 0.303092784,30.5275229 0.25257732,30.5275229 L0.757731959,30.6284404 C0.858762887,30.1743119 0.959793814,29.6697248 1.16185567,29.2155963 L0.606185567,29.4678899 L0.606185567,29.4678899 Z M0,32.4449541 L0,33.8577982 L0.505154639,33.8577982 L0.505154639,33.1009174 L0.505154639,32.3944954 L0,32.4449541 L0,32.4449541 Z M0.505154639,35.4724771 L0,35.4724771 L0,36.9862385 L0.505154639,36.9862385 L0.505154639,35.4724771 Z M0.505154639,38.5 L0,38.5 L0,40.0137615 L0.505154639,40.0137615 L0.505154639,38.5 Z M0.505154639,41.5275229 L0,41.5275229 L0,43.0412844 L0.505154639,43.0412844 L0.505154639,41.5275229 Z M0.505154639,44.5550459 L0,44.5550459 L0,46.0688073 L0.505154639,46.0688073 L0.505154639,44.5550459 Z M0.505154639,47.5825688 L0,47.5825688 L0,49.0963303 L0.505154639,49.0963303 L0.505154639,47.5825688 Z M0.505154639,50.6100917 L0,50.6100917 L0,52.1238532 L0.505154639,52.1238532 L0.505154639,50.6100917 Z M0.505154639,53.6376147 L0,53.6376147 L0,55.1513761 L0.505154639,55.1513761 L0.505154639,53.6376147 Z M0.505154639,56.6651376 L0,56.6651376 L0,58.1788991 L0.505154639,58.1788991 L0.505154639,56.6651376 Z M0.505154639,59.6926606 L0,59.6926606 L0,61.206422 L0.505154639,61.206422 L0.505154639,59.6926606 Z M0.505154639,62.7201835 L0,62.7201835 L0,64.233945 L0.505154639,64.233945 L0.505154639,62.7201835 Z M0.505154639,65.7477064 L0,65.7477064 L0,67.2614679 L0.505154639,67.2614679 L0.505154639,65.7477064 Z M0.505154639,68.7752294 L0,68.7752294 L0,70.2889908 L0.505154639,70.2889908 L0.505154639,68.7752294 Z M0.505154639,71.8027523 L0,71.8027523 L0,73.3165138 L0.505154639,73.3165138 L0.505154639,71.8027523 Z M0.505154639,74.8302752 L0,74.8302752 L0,76.3440367 L0.505154639,76.3440367 L0.505154639,74.8302752 Z M0.555670103,77.8073394 L0.0505154639,77.8577982 C0.101030928,78.3119266 0.151546392,78.766055 0.25257732,79.1697248 L0.757731959,79.0688073 C0.656701031,78.766055 0.606185567,78.2614679 0.555670103,77.8073394 Z M1.16185567,80.5825688 L0.707216495,80.733945 C0.757731959,80.7844037 0.757731959,80.8853211 0.808247423,80.9357798 C0.959793814,81.2889908 1.11134021,81.6422018 1.31340206,81.9954128 L1.76804124,81.7431193 C1.56597938,81.4908257 1.36391753,81.0366972 1.16185567,80.5825688 Z M2.5257732,83.1559633 L2.12164948,83.4587156 C2.32371134,83.7614679 2.5257732,84.0137615 2.77835052,84.266055 C2.82886598,84.3669725 2.92989691,84.4174312 2.98041237,84.5183486 L3.33402062,84.1651376 C3.13195876,83.912844 2.82886598,83.559633 2.5257732,83.1559633 L2.5257732,83.1559633 Z M4.49587629,85.2752294 L4.19278351,85.6788991 C4.24329897,85.7293578 4.29381443,85.7798165 4.39484536,85.8302752 C4.64742268,86.0321101 4.95051546,86.233945 5.25360825,86.4357798 L5.50618557,85.9816514 C5.30412371,85.8302752 4.9,85.5779817 4.49587629,85.2752294 Z M6.97113402,86.8394495 L6.7185567,87.293578 C6.7185567,87.293578 7.2742268,87.5963303 7.67835052,87.8486239 L8.03195876,88.0504587 L8.28453608,87.5963303 L6.97113402,86.8394495 Z M9.59793814,88.353211 L9.34536082,88.8073394 C9.34536082,88.8073394 9.85051546,89.1100917 10.2041237,89.3119266 L10.6082474,89.5642202 L10.8608247,89.1100917 L9.59793814,88.353211 Z M12.2247423,89.8669725 L11.9721649,90.3211009 C11.9721649,90.3211009 12.4268041,90.5733945 12.7804124,90.7752294 L13.2350515,91.0275229 L13.4876289,90.5733945 L12.2247423,89.8669725 Z M14.8515464,91.3807339 L14.5989691,91.8348624 L15.356701,92.2385321 C15.6597938,92.3899083 15.9123711,92.5412844 15.9123711,92.5412844 L16.1649485,92.087156 L14.8515464,91.3807339 Z M17.4783505,92.8944954 L17.2257732,93.3486239 L18.0340206,93.8027523 L18.5391753,94.1055046 L18.7917526,93.6513761 L17.4783505,92.8944954 Z M20.1051546,94.4587156 L19.8525773,94.912844 L20.7113402,95.4174312 C20.9639175,95.5688073 21.1154639,95.6697248 21.1154639,95.6697248 L21.3680412,95.2155963 L20.1051546,94.4587156 Z M22.7319588,95.9724771 L22.4793814,96.4266055 L23.3886598,96.9311927 C23.5907216,97.0321101 23.742268,97.1330275 23.742268,97.1330275 L23.9948454,96.6788991 L22.7319588,95.9724771 Z M25.3587629,97.4862385 L25.1061856,97.940367 L26.0659794,98.4954128 C26.2175258,98.5963303 26.3690722,98.646789 26.3690722,98.646789 L26.6216495,98.1926606 L25.3587629,97.4862385 Z M27.985567,99 L27.7329897,99.4541284 L28.7938144,100.059633 C28.9453608,100.16055 29.0463918,100.211009 29.0463918,100.211009 L29.2989691,99.7568807 L27.985567,99 Z M30.6123711,100.513761 L30.3597938,100.96789 L31.471134,101.623853 L31.6731959,101.724771 L31.9257732,101.270642 L30.6123711,100.513761 L30.6123711,100.513761 Z M33.2391753,102.027523 L32.9865979,102.481651 L34.3,103.238532 L34.5525773,102.784404 L33.2391753,102.027523 Z M35.8154639,103.541284 L35.5628866,103.995413 L36.8762887,104.752294 L37.128866,104.298165 L35.8154639,103.541284 Z M38.442268,105.055046 L38.1896907,105.509174 C38.1896907,105.509174 39.4020619,106.215596 39.5030928,106.266055 L39.7556701,105.811927 L38.442268,105.055046 Z M41.0690722,106.568807 L40.8164948,107.022936 C40.8164948,107.022936 41.8268041,107.577982 42.0793814,107.729358 L42.3319588,107.275229 L41.0690722,106.568807 Z M43.6958763,108.082569 L43.443299,108.536697 L43.4938144,108.536697 C43.8474227,108.738532 44.2515464,108.889908 44.6556701,109.091743 L44.857732,108.637615 C44.5546392,108.536697 44.1,108.334862 43.6958763,108.082569 Z M46.3731959,109.192661 L46.2721649,109.697248 L47.0298969,109.848624 C47.2824742,109.899083 47.4845361,109.899083 47.7371134,109.949541 L47.7876289,109.444954 C47.3329897,109.394495 46.8278351,109.293578 46.3731959,109.192661 Z M50.6670103,109.344037 C50.2123711,109.394495 49.7072165,109.444954 49.2020619,109.495413 L49.2020619,110 C49.7072165,110 50.2123711,109.949541 50.7175258,109.848624 L50.6670103,109.344037 Z M53.4453608,108.536697 C52.9907216,108.738532 52.5360825,108.889908 52.0814433,109.041284 L52.2329897,109.545872 C52.3845361,109.495413 52.5865979,109.444954 52.7381443,109.394495 C52.8896907,109.344037 52.9907216,109.293578 53.0917526,109.243119 L53.142268,109.243119 L53.4453608,108.536697 L53.4453608,108.536697 Z M56.0721649,107.073394 L54.7587629,107.830275 L55.0113402,108.284404 L56.3247423,107.527523 L56.0721649,107.073394 Z M58.6989691,105.559633 L57.385567,106.316514 L57.6381443,106.770642 C57.6381443,106.770642 57.6886598,106.720183 57.7896907,106.669725 L58.9010309,106.013761 L58.6989691,105.559633 Z M61.3257732,104.045872 L60.0123711,104.802752 L60.2649485,105.256881 L61.5783505,104.5 L61.3257732,104.045872 Z M63.9020619,102.53211 L62.5886598,103.288991 L62.8412371,103.743119 L64.1546392,102.986239 L63.9020619,102.53211 Z M66.528866,101.018349 L65.2154639,101.775229 L65.4680412,102.229358 L66.7814433,101.472477 L66.528866,101.018349 Z M69.1556701,99.5045872 L67.842268,100.261468 L68.0948454,100.715596 C68.0948454,100.715596 68.2969072,100.614679 68.5494845,100.463303 L69.4082474,99.9587156 L69.1556701,99.5045872 Z M71.7824742,97.9908257 L70.4690722,98.7477064 L70.7216495,99.2018349 L72.0350515,98.4449541 L71.7824742,97.9908257 Z M74.4092784,96.4770642 L73.0958763,97.233945 L73.3484536,97.6880734 L74.6618557,96.9311927 L74.4092784,96.4770642 Z M77.0360825,94.912844 L75.7226804,95.6697248 L75.9752577,96.1238532 L77.2886598,95.3669725 L77.0360825,94.912844 Z M79.6628866,93.3990826 L78.3494845,94.1559633 L78.6020619,94.6100917 L79.9154639,93.853211 L79.6628866,93.3990826 Z M82.2896907,91.8853211 L80.9762887,92.6422018 L81.228866,93.0963303 C81.228866,93.0963303 81.8350515,92.7431193 82.2391753,92.4908257 L82.542268,92.3394495 L82.2896907,91.8853211 Z M84.9164948,90.3715596 L83.6030928,91.1284404 L83.8556701,91.5825688 L83.9061856,91.5321101 L85.1185567,90.8256881 L84.9164948,90.3715596 Z M87.543299,88.8577982 L86.2298969,89.6146789 L86.4824742,90.0688073 L87.7958763,89.3119266 L87.543299,88.8577982 Z M90.1195876,87.3440367 L88.8061856,88.1009174 L89.0587629,88.5550459 L90.3721649,87.7981651 L90.1195876,87.3440367 Z M92.7463918,85.8302752 C92.5443299,85.9816514 92.342268,86.0825688 92.0896907,86.233945 L91.4329897,86.587156 L91.685567,87.0412844 L92.342268,86.6880734 C92.5443299,86.587156 92.6958763,86.4862385 92.8979381,86.3348624 L92.7463918,85.8302752 L92.7463918,85.8302752 Z M94.8680412,83.912844 C94.5649485,84.266055 94.2113402,84.6192661 93.857732,84.9220183 L94.2113402,85.2752294 C94.2618557,85.2247706 94.3123711,85.2247706 94.3123711,85.1743119 L94.4639175,85.0229358 L94.6659794,84.8211009 L94.8175258,84.6697248 L94.8680412,83.912844 L94.8680412,83.912844 Z M96.4340206,81.4908257 C96.2319588,81.9449541 95.9793814,82.3486239 95.7268041,82.7522936 L96.1309278,83.0045872 L96.1814433,82.9541284 C96.1814433,82.9036697 96.2319588,82.9036697 96.2319588,82.853211 C96.2319588,82.8027523 96.2824742,82.8027523 96.2824742,82.7522936 C96.2824742,82.7018349 96.3329897,82.6513761 96.3329897,82.6513761 C96.3329897,82.6009174 96.3835052,82.5504587 96.3835052,82.5 L96.4340206,81.4908257 L96.4340206,81.4908257 Z M97.343299,78.7155963 C97.242268,79.1697248 97.1412371,79.6743119 96.9896907,80.1284404 L97.4948454,80.2798165 C97.5958763,79.9770642 97.6969072,79.6743119 97.7474227,79.3211009 L97.7474227,79.2706422 L97.343299,78.7155963 L97.343299,78.7155963 Z M98,75.7889908 L97.4948454,75.7889908 L97.4948454,77.2522936 L98,77.2522936 L98,75.7889908 Z M98,72.7614679 L97.4948454,72.7614679 L97.4948454,74.2752294 L98,74.2752294 L98,72.7614679 Z M98,69.733945 L97.4948454,69.733945 L97.4948454,71.2477064 L98,71.2477064 L98,69.733945 Z M98,66.706422 L97.4948454,66.706422 L97.4948454,68.2201835 L98,68.2201835 L98,66.706422 Z M98,63.6788991 L97.4948454,63.6788991 L97.4948454,65.1926606 L98,65.1926606 L98,63.6788991 Z M98,60.6513761 L97.4948454,60.6513761 L97.4948454,62.1651376 L98,62.1651376 L98,60.6513761 Z M98,57.6238532 L97.4948454,57.6238532 L97.4948454,59.1376147 L98,59.1376147 L98,57.6238532 Z M98,54.5963303 L97.4948454,54.5963303 L97.4948454,56.1100917 L98,56.1100917 L98,54.5963303 Z M98,51.5688073 L97.4948454,51.5688073 L97.4948454,53.0825688 L98,53.0825688 L98,51.5688073 Z M98,48.5412844 L97.4948454,48.5412844 L97.4948454,50.0550459 L98,50.0550459 L98,48.5412844 Z M98,45.5137615 L97.4948454,45.5137615 L97.4948454,47.0275229 L98,47.0275229 L98,45.5137615 Z M98,42.4862385 L97.4948454,42.4862385 L97.4948454,44 L98,44 L98,42.4862385 Z M98,39.4587156 L97.4948454,39.4587156 L97.4948454,40.9724771 L98,40.9724771 L98,39.4587156 Z M98,36.4311927 L97.4948454,36.4311927 L97.4948454,37.9449541 L98,37.9449541 L98,36.4311927 Z M98,33.4036697 L97.4948454,33.4036697 L97.4948454,34.9174312 L98,34.9174312 L98,33.4036697 Z M97.6463918,30.4266055 L97.1412371,30.5275229 C97.242268,30.9816514 97.343299,31.4862385 97.3938144,31.940367 L97.8989691,31.8899083 C97.8484536,31.3853211 97.7979381,30.9311927 97.6463918,30.4266055 Z M96.5350515,27.6009174 L96.0804124,27.853211 C96.3329897,28.2568807 96.5350515,28.7110092 96.6865979,29.1651376 L97.1412371,28.9633028 C97.1412371,28.912844 97.1412371,28.912844 97.0907216,28.8623853 C97.0907216,28.8119266 97.0402062,28.8119266 97.0402062,28.7614679 C96.6865979,27.9036697 96.6360825,27.7522936 96.5350515,27.6009174 Z M94.7164948,25.1788991 L94.3628866,25.5321101 C94.7164948,25.8853211 95.0195876,26.2385321 95.3226804,26.6422018 L95.7268041,26.3394495 C95.4237113,25.9357798 95.0701031,25.5825688 94.7164948,25.1788991 L94.7164948,25.1788991 Z M92.342268,23.3623853 L92.0896907,23.8165138 C92.4938144,24.0688073 92.8979381,24.3211009 93.3020619,24.6238532 L93.6051546,24.2201835 C92.8474227,23.6651376 92.5948454,23.5137615 92.342268,23.3623853 Z M89.7154639,21.8486239 L89.4628866,22.3027523 L90.7762887,23.059633 L91.028866,22.6055046 L89.7154639,21.8486239 Z M87.0886598,20.3348624 L86.8360825,20.7889908 L88.1494845,21.5458716 L88.4020619,21.0917431 L87.0886598,20.3348624 Z M84.4618557,18.7706422 L84.2092784,19.2247706 L85.5226804,19.9816514 L85.7752577,19.5275229 L84.4618557,18.7706422 Z M81.8350515,17.2568807 L81.5824742,17.7110092 L82.8958763,18.4678899 L83.1484536,18.0137615 L82.0876289,17.4082569 C81.9360825,17.3073394 81.8350515,17.2568807 81.8350515,17.2568807 Z M79.2587629,15.7431193 L79.0061856,16.1972477 L80.3195876,16.9541284 L80.5721649,16.5 L80.4206186,16.4495413 C80.0164948,16.1972477 79.2587629,15.7431193 79.2587629,15.7431193 L79.2587629,15.7431193 Z M76.6319588,14.2293578 L76.3793814,14.6834862 L77.6927835,15.440367 L77.9453608,14.9862385 L76.6319588,14.2293578 Z M74.0051546,12.7155963 L73.7525773,13.1697248 L75.0659794,13.9266055 L75.3185567,13.4724771 L74.0051546,12.7155963 Z M71.3783505,11.2018349 L71.1257732,11.6559633 L72.4391753,12.412844 L72.6917526,11.9587156 L71.3783505,11.2018349 Z M68.7515464,9.68807339 L68.4989691,10.1422018 L69.8123711,10.8990826 L70.0649485,10.4449541 L68.7515464,9.68807339 Z M66.1247423,8.17431193 L65.8721649,8.62844037 L67.185567,9.3853211 L67.4381443,8.93119266 L66.7309278,8.52752294 C66.4278351,8.32568807 66.1247423,8.17431193 66.1247423,8.17431193 Z M63.4979381,6.66055046 L63.2453608,7.1146789 L64.5587629,7.87155963 L64.8113402,7.41743119 L63.4979381,6.66055046 Z M60.871134,5.14678899 L60.6185567,5.55045872 L61.9319588,6.30733945 L62.1845361,5.85321101 L62.1340206,5.80275229 L60.871134,5.14678899 Z M58.2443299,3.58256881 L57.9917526,4.03669725 L59.3051546,4.79357798 L59.557732,4.33944954 L58.2443299,3.58256881 Z M55.6175258,2.06880734 L55.3649485,2.52293578 L56.6783505,3.27981651 L56.9309278,2.82568807 L55.971134,2.2706422 C55.7690722,2.16972477 55.6175258,2.06880734 55.6175258,2.06880734 Z M52.9402062,0.706422018 L52.7381443,1.16055046 C53.1927835,1.31192661 53.6474227,1.51376147 54.0515464,1.76605505 L54.3041237,1.31192661 C54.0010309,1.16055046 53.6474227,1.00917431 53.3443299,0.857798165 C52.9907216,0.756880734 52.9907216,0.706422018 52.9402062,0.706422018 Z M50.0103093,0.0504587156 L49.9597938,0.555045872 C50.414433,0.605504587 50.9195876,0.655963303 51.3742268,0.756880734 L51.4752577,0.252293578 L51.4247423,0.252293578 C50.8185567,0.151376147 50.414433,0.100917431 50.0103093,0.0504587156 L50.0103093,0.0504587156 Z" id="形状" fill="url(#linearGradient-2)"></path>
                </g>
                <path d="M0,91.0114311 L0,66.5524291 C0,64.998681 0.807920792,63.5451748 2.17128713,62.7933612 L23.3287129,50.5638602 C24.6415842,49.8120466 26.3079208,49.8120466 27.6712871,50.5638602 L48.8287129,62.7933612 C50.1920792,63.5451748 51,64.998681 51,66.5524291 L51,91.0114311 C51,92.5651792 50.1920792,94.0186854 48.8287129,94.770499 L27.6712871,107 L2.17128713,94.770499 C0.807920792,94.0186854 0,92.5651792 0,91.0114311 Z" id="_x33_" stroke="url(#linearGradient-3)" stroke-width="8" fill="#FFFFFF" opacity="0.1"></path>
                <path d="M87,97.9659803 L87,86.0340197 C87,85.2820054 87.407332,84.5801253 88.0692464,84.2291853 L98.4562118,78.263205 C99.1181263,77.912265 99.8818737,77.912265 100.543788,78.263205 L110.930754,84.2291853 C111.592668,84.5801253 112,85.2820054 112,86.0340197 L112,97.9659803 C112,98.7179946 111.592668,99.4198747 110.930754,99.7708147 L100.543788,105.736795 C99.8818737,106.087735 99.1181263,106.087735 98.4562118,105.736795 L88.0692464,99.7708147 C87.407332,99.4198747 87,98.7179946 87,97.9659803 Z" id="_x34_" stroke="url(#linearGradient-4)" stroke-width="4" fill="#FFFFFF" opacity="0.2"></path>
                <polygon id="_x35__1_" stroke="url(#linearGradient-5)" stroke-width="8" fill="#FFFFFF" opacity="0.1" points="104 19.0252101 104 12.9747899 99 10 94 12.9747899 94 19.0252101 99 22"></polygon>
                <path d="M79,63.7650397 L79,46.2849035 C79,44.6867196 78.1282051,43.1884222 76.6923077,42.3393871 L61.3076923,33.599319 C59.8717949,32.800227 58.1282051,32.800227 56.6923077,33.599319 L41.3076923,42.3393871 C39.8717949,43.138479 39,44.6367764 39,46.2849035 L39,63.7150965 C39,65.3132804 39.8717949,66.8115778 41.3076923,67.6606129 L56.6923077,76.400681 C58.1282051,77.199773 59.8717949,77.199773 61.3076923,76.400681 L76.6923077,67.6606129 C78.1282051,66.861521 79,65.3632236 79,63.7650397 Z" id="_x36_" fill="url(#linearGradient-6)"></path>
                <polygon id="对" fill="#FFFFFF" points="64.5 50 66 51.4768519 56.5 61 51 55.5 52.5 53.9722222 56.5 57.9953704"></polygon>
                <polygon id="_x2B_" fill="url(#linearGradient-7)" opacity="0.2" points="100.091837 59 100.091837 61.0918367 98 61.0918367 98 61.9081633 100.091837 61.9081633 100.091837 64 100.908163 64 100.908163 61.9081633 103 61.9081633 103 61.0918367 100.908163 61.0918367 100.908163 59"></polygon>
                <polygon id="_x2B__1_" fill="url(#linearGradient-8)" opacity="0.2" points="25.5 22 25.5 24.5 23 24.5 23 25.5 25.5 25.5 25.5 28 26.5 28 26.5 25.5 29 25.5 29 24.5 26.5 24.5 26.5 22"></polygon>
                <polygon id="_x2B__2_" fill="url(#linearGradient-8)" opacity="0.2" points="20.5571429 90 20.5571429 94.6095238 16 94.6095238 16 96.4428571 20.5571429 96.4428571 20.5571429 101 22.4428571 101 22.4428571 96.4428571 27 96.4428571 27 94.6095238 22.4428571 94.6095238 22.4428571 90"></polygon>
            </g>
        </g>
    </g>
</svg>